<?xml version="1.0" encoding="utf-8"?>
<!-- Generator: Adobe Illustrator 20.0.0, SVG Export Plug-In . SVG Version: 6.00 Build 0)  -->
<svg version="1.1" id="Layer_1" xmlns="http://www.w3.org/2000/svg" xmlns:xlink="http://www.w3.org/1999/xlink" x="0px" y="0px"
	 viewBox="0 0 366 762" style="enable-background:new 0 0 366 762;" xml:space="preserve">
<style type="text/css">
	.st0{fill:#D7D8D8;}
	.st1{fill:#F0F0F0;}
</style>
<path class="st0" d="M314.7,762H51.3C23,762,0,739,0,710.7V51.3C0,23,23,0,51.3,0h263.4C343,0,366,23,366,51.3v659.4
	C366,739,343,762,314.7,762z"/>
<circle class="st1" cx="183" cy="713" r="35"/>
<circle class="st1" cx="134" cy="63" r="5"/>
<circle class="st1" cx="183" cy="33.5" r="7.5"/>
<path class="st1" d="M209,68h-52c-2.8,0-5-2.2-5-5l0,0c0-2.7,2.2-5,5-5h52c2.8,0,5,2.2,5,5l0,0C214,65.8,211.7,68,209,68z"/>
<rect x="23" y="98" class="st1" width="320" height="568"/>
</svg>
